<svg width="33" height="32" viewBox="0 0 33 32" fill="none" xmlns="http://www.w3.org/2000/svg">
<rect x="0.333496" width="32" height="32" rx="4" fill="white" fill-opacity="0.9"/>
<path d="M19.146 13.75H17.271C17.1674 13.75 17.0835 13.8339 17.0835 13.9375V15.8125C17.0835 15.9161 17.1674 16 17.271 16H19.146C19.2495 16 19.3335 15.9161 19.3335 15.8125V13.9375C19.3335 13.8339 19.2495 13.75 19.146 13.75Z" fill="#184CD1"/>
<path d="M22.896 13.75H21.021C20.9174 13.75 20.8335 13.8339 20.8335 13.9375V15.8125C20.8335 15.9161 20.9174 16 21.021 16H22.896C22.9995 16 23.0835 15.9161 23.0835 15.8125V13.9375C23.0835 13.8339 22.9995 13.75 22.896 13.75Z" fill="#184CD1"/>
<path d="M19.146 17.5H17.271C17.1674 17.5 17.0835 17.5839 17.0835 17.6875V19.5625C17.0835 19.6661 17.1674 19.75 17.271 19.75H19.146C19.2495 19.75 19.3335 19.6661 19.3335 19.5625V17.6875C19.3335 17.5839 19.2495 17.5 19.146 17.5Z" fill="#184CD1"/>
<path d="M22.896 17.5H21.021C20.9174 17.5 20.8335 17.5839 20.8335 17.6875V19.5625C20.8335 19.6661 20.9174 19.75 21.021 19.75H22.896C22.9995 19.75 23.0835 19.6661 23.0835 19.5625V17.6875C23.0835 17.5839 22.9995 17.5 22.896 17.5Z" fill="#184CD1"/>
<path d="M11.646 17.5H9.771C9.66744 17.5 9.5835 17.5839 9.5835 17.6875V19.5625C9.5835 19.6661 9.66744 19.75 9.771 19.75H11.646C11.7495 19.75 11.8335 19.6661 11.8335 19.5625V17.6875C11.8335 17.5839 11.7495 17.5 11.646 17.5Z" fill="#184CD1"/>
<path d="M15.396 17.5H13.521C13.4174 17.5 13.3335 17.5839 13.3335 17.6875V19.5625C13.3335 19.6661 13.4174 19.75 13.521 19.75H15.396C15.4995 19.75 15.5835 19.6661 15.5835 19.5625V17.6875C15.5835 17.5839 15.4995 17.5 15.396 17.5Z" fill="#184CD1"/>
<path d="M11.646 21.25H9.771C9.66744 21.25 9.5835 21.3339 9.5835 21.4375V23.3125C9.5835 23.4161 9.66744 23.5 9.771 23.5H11.646C11.7495 23.5 11.8335 23.4161 11.8335 23.3125V21.4375C11.8335 21.3339 11.7495 21.25 11.646 21.25Z" fill="#184CD1"/>
<path d="M15.396 21.25H13.521C13.4174 21.25 13.3335 21.3339 13.3335 21.4375V23.3125C13.3335 23.4161 13.4174 23.5 13.521 23.5H15.396C15.4995 23.5 15.5835 23.4161 15.5835 23.3125V21.4375C15.5835 21.3339 15.4995 21.25 15.396 21.25Z" fill="#184CD1"/>
<path d="M19.146 21.25H17.271C17.1674 21.25 17.0835 21.3339 17.0835 21.4375V23.3125C17.0835 23.4161 17.1674 23.5 17.271 23.5H19.146C19.2495 23.5 19.3335 23.4161 19.3335 23.3125V21.4375C19.3335 21.3339 19.2495 21.25 19.146 21.25Z" fill="#184CD1"/>
<path d="M25.3335 7H23.0835V5.5H21.2085V7H11.4585V5.5H9.5835V7H7.3335C6.93567 7 6.55414 7.15804 6.27284 7.43934C5.99153 7.72064 5.8335 8.10218 5.8335 8.5V25C5.8335 25.3978 5.99153 25.7794 6.27284 26.0607C6.55414 26.342 6.93567 26.5 7.3335 26.5H25.3335C25.7313 26.5 26.1129 26.342 26.3942 26.0607C26.6755 25.7794 26.8335 25.3978 26.8335 25V8.5C26.8335 8.10218 26.6755 7.72064 26.3942 7.43934C26.1129 7.15804 25.7313 7 25.3335 7ZM24.771 24.4375H7.896V12.25H24.771V24.4375Z" fill="#184CD1"/>
</svg>
