<svg width="240" height="24" viewBox="0 0 240 24" fill="none" xmlns="http://www.w3.org/2000/svg">
<path fill-rule="evenodd" clip-rule="evenodd" d="M43.4688 13.9568C43.4688 13.1264 43.6152 12.332 43.9104 11.5712C44.2044 10.8104 44.6304 10.1432 45.1896 9.56717C45.7735 8.97299 46.4737 8.50565 47.2464 8.19438C48.06 7.85718 48.9864 7.68797 50.0244 7.68797C51.4344 7.68797 52.62 7.98317 53.5812 8.57597C54.5412 9.16638 55.2624 9.93797 55.7436 10.892L52.1172 11.9744C51.6372 11.2064 50.9316 10.8224 50.0016 10.8224C49.2264 10.8224 48.5796 11.1068 48.06 11.6744C47.5404 12.2432 47.2812 13.004 47.2812 13.9568C47.2812 14.4332 47.3508 14.8664 47.49 15.2588C47.6304 15.65 47.8236 15.9848 48.072 16.262C48.3192 16.538 48.6096 16.754 48.9432 16.9064C49.2768 17.0612 49.6296 17.138 50.0016 17.138C50.4498 17.142 50.891 17.0264 51.2796 16.8032C51.6672 16.5812 51.954 16.2932 52.14 15.9392L55.7664 17.0456C55.3164 17.9816 54.6 18.7508 53.616 19.3496C52.632 19.9496 51.4344 20.2496 50.0244 20.2496C49.0008 20.2496 48.084 20.0768 47.2692 19.73C46.4948 19.4108 45.7916 18.9409 45.2004 18.3476C44.6368 17.7752 44.1976 17.0925 43.9104 16.3424C43.6158 15.5817 43.466 14.7725 43.4688 13.9568ZM60.4164 13.9796C60.4164 14.9324 60.672 15.6956 61.1844 16.2728C61.6944 16.8488 62.346 17.1368 63.1356 17.1368C63.5002 17.1413 63.8614 17.0652 64.1931 16.9137C64.5249 16.7623 64.819 16.5393 65.0544 16.2608C65.2944 15.9848 65.484 15.65 65.6232 15.2588C65.7636 14.8676 65.832 14.4404 65.832 13.9796C65.832 13.0268 65.5776 12.2636 65.0664 11.6864C64.8285 11.4085 64.532 11.1868 64.1981 11.0374C63.8642 10.888 63.5013 10.8146 63.1356 10.8224C62.7682 10.82 62.4046 10.8971 62.0697 11.0483C61.7348 11.1995 61.4365 11.4212 61.1952 11.6984C60.9552 11.9744 60.7644 12.3092 60.6252 12.7004C60.4826 13.1116 60.412 13.5443 60.4164 13.9796ZM63.1356 20.2496C62.0976 20.2496 61.1712 20.0804 60.3576 19.742C59.5848 19.4314 58.8846 18.9644 58.3008 18.3704C57.7445 17.7971 57.313 17.1148 57.0336 16.3664C56.7465 15.6031 56.601 14.7939 56.604 13.9784C56.604 13.1504 56.7468 12.3548 57.0336 11.594C57.3129 10.8456 57.7444 10.1632 58.3008 9.58997C58.8861 8.99478 59.5857 8.52414 60.3576 8.20637C61.1712 7.86077 62.0976 7.68797 63.1356 7.68797C64.1748 7.68797 65.0964 7.86077 65.9028 8.20637C66.708 8.55197 67.3908 9.01277 67.9488 9.58877C68.5056 10.1648 68.9328 10.8332 69.2268 11.594C69.521 12.3548 69.6707 13.1638 69.6684 13.9796C69.6684 14.81 69.5244 15.6044 69.2388 16.3652C68.9598 17.1141 68.5283 17.797 67.9716 18.3704C67.3877 18.9642 66.6875 19.4312 65.9148 19.742C65.1012 20.0804 64.1748 20.2496 63.1356 20.2496ZM77.5488 17.138C78.0612 17.138 78.5484 16.988 79.014 16.688C79.4784 16.388 79.842 15.9776 80.106 15.4544V12.92C79.8834 12.3189 79.4922 11.7947 78.9792 11.4104C78.4596 11.0192 77.922 10.8224 77.3628 10.8224C76.9596 10.8224 76.5924 10.9124 76.2588 11.0888C75.9252 11.2652 75.6348 11.4992 75.3876 11.7908C75.1354 12.0902 74.942 12.4347 74.8176 12.806C74.6856 13.19 74.6196 13.598 74.6196 14.0264C74.6196 14.9336 74.8908 15.6788 75.4344 16.2632C75.9756 16.8464 76.6812 17.1392 77.5488 17.1392V17.138ZM76.5504 20.2496C75.7128 20.2496 74.9424 20.0912 74.2368 19.7768C73.5414 19.469 72.9192 19.0171 72.4116 18.4508C71.8913 17.8673 71.4855 17.1911 71.2152 16.4576C70.9206 15.6571 70.7742 14.8097 70.7832 13.9568C70.7832 13.0808 70.9152 12.2588 71.1792 11.4908C71.4432 10.7228 71.8152 10.058 72.2952 9.49638C72.7752 8.93598 73.3452 8.49438 74.004 8.17158C74.6814 7.8448 75.4252 7.67928 76.1772 7.68797C76.984 7.68027 77.7784 7.88735 78.4788 8.28797C79.1541 8.66469 79.71 9.22352 80.0832 9.90077V3.19277H83.8032V15.8696C83.8032 16.238 83.8728 16.496 84.012 16.6412C84.1512 16.7876 84.3996 16.8764 84.756 16.9076V20.0192C84.1668 20.1398 83.567 20.2013 82.9656 20.2028C81.6636 20.1716 80.9208 19.658 80.7336 18.6584L80.664 18.0128C80.2152 18.7664 79.626 19.3268 78.8976 19.6952C78.1705 20.0641 77.3658 20.2542 76.5504 20.2496ZM95.2404 12.8276C95.1624 12.0596 94.884 11.4524 94.404 11.006C93.9228 10.562 93.3264 10.3388 92.6136 10.3388C91.8852 10.3388 91.284 10.5644 90.8112 11.018C90.3384 11.4716 90.0636 12.074 89.9868 12.8276H95.2404ZM92.6604 20.2496C91.6368 20.2496 90.7188 20.084 89.9052 19.754C89.131 19.4499 88.427 18.9909 87.8364 18.4052C87.2748 17.8446 86.8356 17.1737 86.5464 16.4348C86.2518 15.6899 86.1019 14.8958 86.1048 14.0948C86.1048 13.2188 86.2512 12.3932 86.5464 11.618C86.8299 10.8585 87.2647 10.1645 87.8244 9.57798C88.4062 8.97803 89.1073 8.5067 89.8824 8.19438C90.696 7.85718 91.6212 7.68797 92.6604 7.68797C93.6984 7.68797 94.62 7.85598 95.4264 8.19438C96.1948 8.50729 96.8911 8.97405 97.4724 9.56598C98.0304 10.142 98.4528 10.8068 98.7384 11.5592C99.0269 12.3176 99.1733 13.1226 99.1704 13.934C99.1704 14.15 99.1608 14.36 99.1464 14.5676C99.1344 14.7492 99.1111 14.93 99.0768 15.1088H90.0564C90.1176 15.9236 90.4164 16.5428 90.9516 16.9652C91.4856 17.3876 92.094 17.5988 92.7756 17.5988C93.323 17.5978 93.8618 17.4631 94.3452 17.2064C94.8492 16.9448 95.1852 16.592 95.3568 16.1468L98.5176 17.0228C98.0376 17.9744 97.2936 18.7508 96.2868 19.3508C95.2788 19.9496 94.0704 20.2496 92.6604 20.2496ZM120.139 20.018H116.419V13.22C116.419 12.422 116.275 11.8412 115.988 11.48C115.853 11.3049 115.678 11.1645 115.478 11.0704C115.278 10.9763 115.059 10.9312 114.838 10.9388C114.342 10.9388 113.857 11.138 113.386 11.5388C112.906 11.9487 112.547 12.4825 112.35 13.082V20.0192H108.63V13.22C108.63 12.422 108.487 11.8412 108.2 11.48C108.065 11.305 107.89 11.1646 107.69 11.0705C107.49 10.9764 107.271 10.9313 107.05 10.9388C106.554 10.9388 106.07 11.1344 105.598 11.5268C105.124 11.918 104.779 12.4364 104.563 13.082V20.0192H100.843V7.91838H104.191V9.94637C104.628 9.22027 105.266 8.63601 106.027 8.26397C106.802 7.87997 107.701 7.68797 108.724 7.68797C109.22 7.68797 109.661 7.74918 110.048 7.87157C110.436 7.99517 110.766 8.16437 111.037 8.37917C111.565 8.79836 111.937 9.3822 112.094 10.0376C112.527 9.30149 113.154 8.6993 113.908 8.29757C114.667 7.89078 115.536 7.68797 116.512 7.68797C117.287 7.68797 117.911 7.82957 118.384 8.11397C118.855 8.39837 119.224 8.76678 119.488 9.22038C119.752 9.67397 119.926 10.1684 120.011 10.7072C120.095 11.2448 120.139 11.7668 120.139 12.2744V20.018ZM130.994 12.8276C130.918 12.0596 130.638 11.4524 130.158 11.006C129.678 10.562 129.08 10.3388 128.368 10.3388C127.639 10.3388 127.038 10.5644 126.565 11.018C126.094 11.4716 125.819 12.074 125.741 12.8276H130.994ZM128.414 20.2496C127.391 20.2496 126.474 20.084 125.659 19.754C124.885 19.4498 124.181 18.9908 123.59 18.4052C123.029 17.8444 122.59 17.1735 122.3 16.4348C122.006 15.6899 121.856 14.8957 121.859 14.0948C121.859 13.2188 122.005 12.3932 122.3 11.618C122.594 10.8416 123.02 10.1612 123.578 9.57798C124.16 8.97803 124.861 8.5067 125.636 8.19438C126.45 7.85718 127.376 7.68797 128.414 7.68797C129.452 7.68797 130.375 7.85598 131.18 8.19438C131.949 8.50729 132.645 8.97405 133.226 9.56598C133.781 10.1366 134.212 10.815 134.494 11.5592C134.782 12.3176 134.928 13.1226 134.924 13.934C134.924 14.15 134.915 14.36 134.9 14.5676C134.888 14.7492 134.865 14.93 134.831 15.1088H125.81C125.873 15.9236 126.17 16.5428 126.706 16.9652C127.24 17.3876 127.848 17.5988 128.531 17.5988C129.078 17.5976 129.616 17.4629 130.099 17.2064C130.603 16.9448 130.939 16.592 131.111 16.1468L134.273 17.0228C133.793 17.9744 133.049 18.7508 132.041 19.3508C131.033 19.9496 129.824 20.2496 128.414 20.2496ZM148.384 20.018H144.664V13.22C144.664 12.422 144.514 11.8412 144.211 11.48C143.909 11.12 143.509 10.9388 143.014 10.9388C142.75 10.9388 142.483 10.9928 142.212 11.0996C141.935 11.2104 141.676 11.3621 141.444 11.5496C141.204 11.7416 140.983 11.9684 140.783 12.2288C140.583 12.4864 140.426 12.7745 140.317 13.082V20.0192H136.597V7.91838H139.945V9.94637C140.394 9.22398 141.029 8.66717 141.851 8.27478C142.673 7.88357 143.618 7.68677 144.688 7.68677C145.478 7.68677 146.118 7.83077 146.605 8.11397C147.094 8.39837 147.469 8.76678 147.733 9.22038C147.997 9.67397 148.171 10.1684 148.255 10.7072C148.342 11.2448 148.384 11.7668 148.384 12.2744V20.018ZM158.682 19.3736C158.171 19.5896 157.59 19.7876 156.94 19.9724C156.289 20.1565 155.616 20.2494 154.94 20.2484C154.497 20.2514 154.054 20.1932 153.626 20.0756C153.232 19.9689 152.863 19.7808 152.545 19.5236C152.223 19.2536 151.972 18.9093 151.813 18.5204C151.634 18.1052 151.546 17.606 151.546 17.0216V10.7072H149.988V7.91597H151.546V4.06877H155.266V7.91597H157.753V10.706H155.266V15.7532C155.266 16.1528 155.37 16.4408 155.579 16.6172C155.789 16.7948 156.047 16.8824 156.359 16.8824C156.622 16.8824 156.9 16.8368 157.195 16.7444C157.489 16.652 157.753 16.5524 157.985 16.4444L158.682 19.3724V19.3736ZM163.054 13.9796C163.054 14.9324 163.309 15.6956 163.822 16.2728C164.332 16.8488 164.982 17.1368 165.773 17.1368C166.137 17.1413 166.499 17.0652 166.83 16.9137C167.162 16.7623 167.456 16.5393 167.692 16.2608C167.932 15.9848 168.121 15.65 168.26 15.2588C168.401 14.8676 168.469 14.4404 168.469 13.9796C168.469 13.0268 168.214 12.2636 167.702 11.6864C167.465 11.4086 167.168 11.1871 166.835 11.0377C166.501 10.8883 166.138 10.8147 165.773 10.8224C165.405 10.8189 165.041 10.8955 164.706 11.0467C164.371 11.198 164.073 11.4204 163.832 11.6984C163.592 11.9744 163.4 12.3092 163.262 12.7004C163.12 13.1116 163.049 13.5444 163.054 13.9796ZM165.773 20.2496C164.735 20.2496 163.808 20.0804 162.995 19.742C162.222 19.4313 161.522 18.9643 160.938 18.3704C160.382 17.7971 159.95 17.1148 159.671 16.3664C159.384 15.6031 159.238 14.7939 159.241 13.9784C159.241 13.1504 159.384 12.3548 159.671 11.594C159.95 10.8456 160.382 10.1632 160.938 9.58997C161.523 8.99485 162.223 8.52422 162.995 8.20637C163.808 7.86077 164.735 7.68797 165.773 7.68797C166.811 7.68797 167.734 7.86077 168.54 8.20637C169.345 8.55197 170.028 9.01277 170.585 9.58877C171.143 10.1648 171.569 10.8332 171.864 11.594C172.158 12.3547 172.308 13.1638 172.306 13.9796C172.306 14.81 172.162 15.6044 171.875 16.3652C171.596 17.114 171.165 17.7968 170.609 18.3704C170.025 18.9641 169.325 19.4311 168.552 19.742C167.737 20.0804 166.812 20.2496 165.773 20.2496ZM181.837 11.0756C180.937 11.0912 180.128 11.2364 179.407 11.5136C178.687 11.7896 178.156 12.2048 177.815 12.758V20.018H174.095V7.91718H177.512V10.3616C177.947 9.54678 178.493 8.91317 179.152 8.45957C179.769 8.02059 180.5 7.76856 181.256 7.73357C181.566 7.73357 181.759 7.74197 181.837 7.75637V11.0756ZM11.6736 15.8336C12.21 15.8336 12.6444 16.2644 12.6444 16.796C12.6438 16.923 12.6181 17.0486 12.5689 17.1657C12.5198 17.2828 12.448 17.3891 12.3577 17.4785C12.2675 17.5679 12.1605 17.6386 12.0429 17.6866C11.9253 17.7346 11.7994 17.759 11.6724 17.7584H7.746C7.61899 17.759 7.49309 17.7346 7.3755 17.6866C7.25791 17.6386 7.15094 17.5679 7.06068 17.4785C6.97042 17.3891 6.89865 17.2828 6.84946 17.1657C6.80027 17.0486 6.77463 16.923 6.774 16.796C6.774 16.2644 7.2096 15.8336 7.746 15.8336H11.6748H11.6736ZM12.6216 12.2672C13.158 12.2672 13.5924 12.6992 13.5924 13.2296C13.5919 13.3567 13.5664 13.4825 13.5173 13.5997C13.4682 13.717 13.3964 13.8234 13.3061 13.9129C13.2159 14.0024 13.1088 14.0732 12.9912 14.1213C12.8735 14.1694 12.7475 14.1938 12.6204 14.1932H7.7688C7.64169 14.1938 7.51569 14.1694 7.39803 14.1213C7.28036 14.0732 7.17333 14.0024 7.08305 13.9129C6.99278 13.8234 6.92103 13.717 6.87191 13.5997C6.8228 13.4825 6.79727 13.3567 6.7968 13.2296C6.7968 12.698 7.2324 12.2672 7.7688 12.2672H12.6228H12.6216ZM20.85 10.3952C20.4691 10.3969 20.0916 10.3236 19.7391 10.1795C19.3865 10.0353 19.0658 9.82311 18.7952 9.55501C18.5247 9.28691 18.3096 8.96814 18.1622 8.61691C18.0149 8.26568 17.9381 7.88886 17.9364 7.50798C17.9381 7.12709 18.0149 6.75027 18.1622 6.39904C18.3096 6.04781 18.5247 5.72904 18.7952 5.46094C19.0658 5.19284 19.3865 4.98065 19.7391 4.83649C20.0916 4.69234 20.4691 4.61904 20.85 4.62077C21.619 4.61759 22.3578 4.91994 22.904 5.46137C23.4501 6.00279 23.7589 6.73895 23.7624 7.50798C23.7608 7.88886 23.6842 8.26571 23.537 8.617C23.3898 8.96829 23.1749 9.28715 22.9044 9.55536C22.634 9.82357 22.3134 10.0359 21.9609 10.1802C21.6084 10.3245 21.2309 10.398 20.85 10.3964V10.3952ZM26.5452 16.5284C26.5778 16.7285 26.5664 16.9333 26.5119 17.1285C26.4573 17.3238 26.3609 17.5048 26.2294 17.6591C26.0979 17.8133 25.9343 17.9371 25.7501 18.0218C25.5659 18.1065 25.3655 18.1501 25.1628 18.1496H16.536C16.3334 18.1501 16.1331 18.1065 15.949 18.0219C15.7649 17.9373 15.6014 17.8136 15.4699 17.6595C15.3384 17.5053 15.242 17.3245 15.1874 17.1293C15.1327 16.9342 15.1212 16.7296 15.1536 16.5296C15.5868 13.8584 17.0676 11.7032 18.9996 10.8488C19.5657 11.1633 20.2026 11.3282 20.8502 11.328C21.4977 11.3278 22.1345 11.1625 22.7004 10.8476C24.6324 11.7032 26.1132 13.8596 26.5452 16.5284ZM15.534 9.66438C15.5335 9.79139 15.508 9.91707 15.459 10.0342C15.41 10.1514 15.3383 10.2578 15.2482 10.3472C15.158 10.4367 15.0511 10.5076 14.9336 10.5557C14.8161 10.6039 14.6902 10.6284 14.5632 10.628H9.7092L9.6612 10.6256H7.7664C7.63939 10.6262 7.51349 10.6018 7.3959 10.5538C7.27831 10.5058 7.17134 10.4351 7.08108 10.3457C6.99082 10.2563 6.91905 10.15 6.86986 10.0329C6.82067 9.91584 6.79503 9.79019 6.7944 9.66318C6.7944 9.13158 7.23 8.69957 7.7664 8.69957H10.68L10.728 8.70197H14.5632C15.0996 8.70197 15.5352 9.13398 15.5352 9.66438H15.534ZM7.7676 7.06037C7.64054 7.06116 7.51458 7.03688 7.39692 6.98891C7.27926 6.94095 7.17222 6.87024 7.08193 6.78084C6.99164 6.69144 6.91987 6.58511 6.87074 6.46793C6.8216 6.35075 6.79607 6.22503 6.7956 6.09797C6.7956 5.56637 7.2312 5.13557 7.7676 5.13557H8.22L8.2524 5.13437H14.562C15.0972 5.13437 15.5328 5.56518 15.5328 6.09678C15.5322 6.22379 15.5065 6.34944 15.4573 6.46654C15.4082 6.58365 15.3364 6.68992 15.2461 6.77929C15.1559 6.86865 15.0489 6.93937 14.9313 6.98739C14.8137 7.03541 14.6878 7.05981 14.5608 7.05918H8.772L8.7396 7.06157H7.7676V7.06037ZM18.5088 20.9756C18.7486 20.9765 18.9789 20.8823 19.1492 20.7135C19.3195 20.5448 19.4159 20.3153 19.4172 20.0756H29.1264V2.74637H3.8844V20.0744H13.5924C13.5924 20.5712 13.9992 20.9744 14.5008 20.9744H18.5088V20.9756ZM33.0096 20.0756V21.392C33.0096 22.2248 32.328 22.9004 31.488 22.9004H1.5216C0.6816 22.9004 0 22.2248 0 21.392V20.0756H1.9428V2.72477C1.9428 1.67597 2.8008 0.823975 3.8604 0.823975H29.1504C30.21 0.823975 31.068 1.67597 31.068 2.72597V20.0756H33.0096ZM192.82 0.952375H193.729V23.5772H192.82V0.952375ZM204.643 1.42757H206.298C207.066 1.42757 207.62 1.53557 207.962 1.75157C208.304 1.96997 208.475 2.31197 208.475 2.78117C208.475 3.09677 208.391 3.35957 208.223 3.56837C208.055 3.77837 207.815 3.91037 207.499 3.96437V4.00157C207.89 4.07357 208.178 4.21397 208.363 4.42517C208.547 4.63637 208.639 4.92077 208.639 5.28077C208.639 5.76677 208.464 6.14717 208.115 6.42197C207.766 6.69797 207.28 6.83477 206.657 6.83477H204.643V1.42757ZM205.555 3.66077H206.431C206.813 3.66077 207.091 3.60317 207.266 3.48557C207.442 3.36797 207.53 3.16877 207.53 2.88797C207.53 2.63477 207.434 2.44997 207.246 2.33597C207.056 2.22317 206.755 2.16797 206.344 2.16797H205.554V3.66077H205.555ZM205.555 4.37837V6.09197H206.522C206.904 6.09197 207.192 6.02117 207.386 5.87957C207.581 5.73797 207.678 5.51477 207.678 5.20757C207.678 4.92797 207.58 4.71917 207.38 4.58358C207.182 4.44797 206.881 4.37957 206.477 4.37957H205.554L205.555 4.37837ZM211.786 3.89477L213.104 1.42757H214.096L212.239 4.73717V6.83598H211.324V4.76717L209.474 1.42757H210.466L211.786 3.89477ZM233.272 22.418C232.345 21.716 231.626 20.8844 231.136 19.9472C230.65 19.0261 230.396 18.0005 230.396 16.9592C230.396 15.908 230.642 14.9 231.128 13.964C231.613 13.034 232.336 12.206 233.272 11.5016L233.466 11.36L233.545 11.4656L234.101 12.2504L234.013 12.3272C233.23 13.0304 232.709 13.7084 232.398 14.4032C232.086 15.098 231.93 15.9524 231.93 16.9472C231.93 17.9756 232.092 18.848 232.415 19.5404C232.739 20.2364 233.255 20.9084 233.945 21.5324L234.101 21.6596L234.034 21.7664L233.466 22.5668L233.272 22.418ZM237.121 22.418L236.927 22.5668L236.359 21.7664L236.292 21.6584L236.448 21.5312C237.139 20.9072 237.654 20.2364 237.978 19.5404C238.301 18.848 238.464 17.9756 238.464 16.9472C238.464 15.9524 238.307 15.098 237.995 14.4032C237.684 13.7084 237.164 13.0304 236.38 12.3272L236.292 12.2504L236.848 11.4656L236.927 11.36L237.121 11.5016C238.057 12.206 238.78 13.034 239.263 13.964C239.75 14.9 239.995 15.908 239.995 16.958C239.995 17.9996 239.748 19.0064 239.256 19.9472C238.766 20.8832 238.048 21.716 237.121 22.418ZM206.536 16.9652C206.536 17.7332 206.74 18.3572 207.151 18.8408C207.574 19.3304 208.105 19.5728 208.747 19.5728C209.431 19.5728 209.987 19.3376 210.409 18.8672C210.832 18.3776 211.042 17.7572 211.042 17.0072C211.042 16.2548 210.832 15.6356 210.409 15.1472C209.987 14.6696 209.437 14.4308 208.764 14.4308C208.128 14.4308 207.596 14.672 207.168 15.1556C206.746 15.644 206.536 16.2476 206.536 16.9652ZM210.928 12.9836H212.785V20.9972H210.926V20.1572C210.164 20.87 209.345 21.2276 208.468 21.2276C207.36 21.2276 206.446 20.8268 205.721 20.0276C205.002 19.2092 204.643 18.188 204.643 16.9652C204.643 15.7652 205.003 14.7632 205.721 13.9616C206.44 13.1612 207.338 12.7616 208.418 12.7616C209.351 12.7616 210.187 13.1456 210.926 13.9136V12.9836H210.928ZM215.12 13.052H216.971V13.7684C217.312 13.4108 217.607 13.1516 217.886 13.0592C218.754 12.7676 219.817 12.9692 220.68 13.4516L219.929 14.9552C219.578 14.7044 219.029 14.54 218.695 14.54C217.687 14.54 216.971 15.386 216.971 16.91V21.0656H215.12V13.052ZM227.806 13.328V15.0992C227.237 14.4308 225.956 14.4308 225.511 14.4308C224.815 14.4308 224.237 14.6756 223.777 15.164C223.316 15.6512 223.086 16.2632 223.086 16.9976C223.086 17.7488 223.308 18.3668 223.751 18.8504C224.202 19.3316 224.774 19.5728 225.47 19.5728C225.914 19.5728 227.292 19.4324 227.806 18.9704V20.6432C227.056 21.032 226.304 21.2276 225.553 21.2276C224.315 21.2276 223.277 20.8268 222.445 20.0276C221.611 19.2188 221.195 18.218 221.195 17.0228C221.195 15.8264 221.617 14.8184 222.46 13.9952C223.306 13.1732 224.341 12.7616 225.569 12.7616C226.36 12.7616 227.105 12.95 227.806 13.3292V13.328Z" fill="#184CD1"/>
</svg>
