<svg width="21" height="21" viewBox="0 0 21 21" fill="none" xmlns="http://www.w3.org/2000/svg">
<g clip-path="url(#clip0_943_854)">
<path fill-rule="evenodd" clip-rule="evenodd" d="M10.2451 0.900024C4.80852 0.900024 0.399902 5.30667 0.399902 10.7432C0.399902 15.0923 3.22083 18.7811 7.13369 20.0823C7.62599 20.1734 7.80569 19.8691 7.80569 19.6082C7.80569 19.3749 7.79732 18.7555 7.7924 17.9344C5.05369 18.5291 4.47572 16.615 4.47572 16.615C4.02772 15.4777 3.3823 15.175 3.3823 15.175C2.48827 14.5645 3.44975 14.5768 3.44975 14.5768C4.4383 14.6457 4.95818 15.591 4.95818 15.591C5.83646 17.095 7.26267 16.6608 7.82341 16.4087C7.91301 15.7731 8.16803 15.3394 8.44864 15.0933C6.2628 14.8451 3.96372 14.0003 3.96372 10.2283C3.96372 9.15406 4.34772 8.27479 4.97738 7.58704C4.87596 7.33842 4.53775 6.33707 5.07387 4.98273C5.07387 4.98273 5.90046 4.71787 7.78156 5.99147C8.58482 5.7726 9.41352 5.66103 10.2461 5.65966C11.0825 5.66409 11.9248 5.77289 12.711 5.99147C14.5907 4.71787 15.4158 4.98224 15.4158 4.98224C15.9529 6.33707 15.6152 7.33842 15.5142 7.58704C16.1454 8.27479 16.5259 9.15406 16.5259 10.2283C16.5259 14.0097 14.2239 14.8417 12.0312 15.0854C12.3837 15.3891 12.6987 15.9897 12.6987 16.9084C12.6987 18.2238 12.6864 19.2857 12.6864 19.6082C12.6864 19.8716 12.8641 20.1778 13.3638 20.0818C17.2733 18.7772 20.0922 15.0908 20.0922 10.7432C20.0922 5.30667 15.6836 0.900024 10.2451 0.900024Z" fill="#184CD1"/>
</g>
<defs>
<clipPath id="clip0_943_854">
<rect width="19.6923" height="19.2" fill="white" transform="translate(0.399902 0.900024)"/>
</clipPath>
</defs>
</svg>
