<svg width="32" height="32" viewBox="0 0 32 32" fill="none" xmlns="http://www.w3.org/2000/svg">
<path d="M22.6666 14.6668H12.5466L16.9466 10.2801C17.1977 10.029 17.3387 9.68849 17.3387 9.33342C17.3387 8.97835 17.1977 8.63782 16.9466 8.38675C16.6955 8.13568 16.355 7.99463 15.9999 7.99463C15.6449 7.99463 15.3043 8.13568 15.0533 8.38675L8.38661 15.0534C8.26522 15.1802 8.17007 15.3297 8.10661 15.4934C7.97325 15.818 7.97325 16.1821 8.10661 16.5068C8.17007 16.6704 8.26522 16.8199 8.38661 16.9468L15.0533 23.6134C15.1772 23.7384 15.3247 23.8376 15.4872 23.9053C15.6497 23.973 15.8239 24.0078 15.9999 24.0078C16.176 24.0078 16.3502 23.973 16.5127 23.9053C16.6752 23.8376 16.8227 23.7384 16.9466 23.6134C17.0716 23.4895 17.1708 23.342 17.2385 23.1795C17.3062 23.017 17.341 22.8428 17.341 22.6667C17.341 22.4907 17.3062 22.3165 17.2385 22.154C17.1708 21.9915 17.0716 21.844 16.9466 21.7201L12.5466 17.3334H22.6666C23.0202 17.3334 23.3594 17.1929 23.6094 16.9429C23.8595 16.6928 23.9999 16.3537 23.9999 16.0001C23.9999 15.6465 23.8595 15.3073 23.6094 15.0573C23.3594 14.8072 23.0202 14.6668 22.6666 14.6668Z" fill="white"/>
</svg>
