<svg width="20" height="21" viewBox="0 0 20 21" fill="none" xmlns="http://www.w3.org/2000/svg">
<g clip-path="url(#clip0_943_861)">
<path d="M18.0001 0.900024C18.4244 0.900024 18.8313 1.06858 19.1313 1.36861C19.4314 1.66863 19.5999 2.07556 19.5999 2.49986V18.5002C19.5999 18.9245 19.4314 19.3314 19.1313 19.6314C18.8313 19.9315 18.4244 20.1 18.0001 20.1H1.99974C1.57544 20.1 1.16851 19.9315 0.868485 19.6314C0.568456 19.3314 0.399902 18.9245 0.399902 18.5002V2.49986C0.399902 2.07556 0.568456 1.66863 0.868485 1.36861C1.16851 1.06858 1.57544 0.900024 1.99974 0.900024H18.0001ZM6.79974 8.10002H4.39974V16.8999H6.79974V8.10002ZM10.8001 8.10002H8.40006V16.8999H10.8001V12.4167C10.8001 9.92642 13.9997 9.72242 13.9997 12.4167V16.8999H16.3997V11.4927C16.3997 7.29027 11.9165 7.44338 10.8001 9.51218V8.10002ZM5.59974 4.26338C4.82694 4.26338 4.20006 4.89506 4.20006 5.67458C4.20006 6.45362 4.82694 7.08578 5.59974 7.08578C6.3735 7.08578 6.9999 6.45362 6.9999 5.67458C6.9999 4.89506 6.37254 4.26338 5.59974 4.26338Z" fill="#184CD1"/>
</g>
<defs>
<clipPath id="clip0_943_861">
<rect width="19.2" height="19.2" fill="white" transform="translate(0.399902 0.900024)"/>
</clipPath>
</defs>
</svg>
