<svg width="33" height="32" viewBox="0 0 33 32" fill="none" xmlns="http://www.w3.org/2000/svg">
<rect x="0.666504" width="32" height="32" rx="8" fill="white" fill-opacity="0.9"/>
<path d="M16.6665 14.8C17.0621 14.8 17.4487 14.6827 17.7776 14.463C18.1065 14.2432 18.3629 13.9308 18.5143 13.5654C18.6656 13.1999 18.7052 12.7978 18.6281 12.4098C18.5509 12.0219 18.3604 11.6655 18.0807 11.3858C17.801 11.1061 17.4446 10.9156 17.0567 10.8385C16.6687 10.7613 16.2666 10.8009 15.9011 10.9523C15.5357 11.1036 15.2233 11.36 15.0036 11.6889C14.7838 12.0178 14.6665 12.4045 14.6665 12.8C14.6665 13.3305 14.8772 13.8392 15.2523 14.2142C15.6274 14.5893 16.1361 14.8 16.6665 14.8ZM15.9565 21.71C16.0495 21.8038 16.1601 21.8781 16.2819 21.9289C16.4038 21.9797 16.5345 22.0058 16.6665 22.0058C16.7985 22.0058 16.9292 21.9797 17.0511 21.9289C17.1729 21.8781 17.2835 21.8038 17.3765 21.71L21.4665 17.61C22.4165 16.6606 23.0635 15.4507 23.3258 14.1335C23.5881 12.8163 23.4538 11.4508 22.94 10.2099C22.4262 8.969 21.5559 7.90834 20.4392 7.16209C19.3225 6.41583 18.0096 6.01752 16.6665 6.01752C15.3234 6.01752 14.0105 6.41583 12.8938 7.16209C11.7771 7.90834 10.9068 8.969 10.393 10.2099C9.87921 11.4508 9.74495 12.8163 10.0072 14.1335C10.2695 15.4507 10.9166 16.6606 11.8665 17.61L15.9565 21.71ZM11.8965 12.34C11.9648 11.627 12.1915 10.9383 12.56 10.3241C12.9285 9.70996 13.4296 9.18583 14.0265 8.79003C14.8107 8.27512 15.7284 8.00079 16.6665 8.00079C17.6046 8.00079 18.5223 8.27512 19.3065 8.79003C19.8995 9.18448 20.3977 9.70543 20.7652 10.3154C21.1328 10.9254 21.3607 11.6093 21.4324 12.3178C21.5041 13.0264 21.4179 13.742 21.18 14.4133C20.9421 15.0846 20.5584 15.6948 20.0565 16.2L16.6665 19.59L13.2765 16.2C12.774 15.6997 12.3894 15.0936 12.1507 14.4258C11.912 13.7581 11.8251 13.0455 11.8965 12.34ZM23.6665 24H9.6665C9.40129 24 9.14693 24.1054 8.9594 24.2929C8.77186 24.4805 8.6665 24.7348 8.6665 25C8.6665 25.2652 8.77186 25.5196 8.9594 25.7071C9.14693 25.8947 9.40129 26 9.6665 26H23.6665C23.9317 26 24.1861 25.8947 24.3736 25.7071C24.5611 25.5196 24.6665 25.2652 24.6665 25C24.6665 24.7348 24.5611 24.4805 24.3736 24.2929C24.1861 24.1054 23.9317 24 23.6665 24Z" fill="#184CD1"/>
</svg>
