<svg width="24" height="25" viewBox="0 0 24 25" fill="none" xmlns="http://www.w3.org/2000/svg">
<g clip-path="url(#clip0_943_846)">
<path d="M5.31898 15.249V20.3927H17.3972V15.249H19.1166V22.1H3.6001V15.249H5.31898ZM15.6558 16.9563V18.6637H7.03834V16.9563H15.6558ZM7.5745 13.0765L16.0129 14.828L15.6558 16.5128L7.2169 14.7613L7.57402 13.0765H7.5745ZM9.0481 9.19666L16.862 12.8327L16.1478 14.3845L8.33338 10.7706L9.0481 9.19619V9.19666ZM11.5931 5.64946L18.2238 11.1253L17.1299 12.4333L10.4991 6.95746L11.5935 5.64898L11.5931 5.64946ZM14.7851 2.90002L19.9201 9.77314L18.5358 10.7927L13.4017 3.92002L14.7851 2.90002Z" fill="#184CD1"/>
</g>
<defs>
<clipPath id="clip0_943_846">
<rect width="16.32" height="19.2" fill="white" transform="translate(3.6001 2.90002)"/>
</clipPath>
</defs>
</svg>
