<svg width="20" height="21" viewBox="0 0 20 21" fill="none" xmlns="http://www.w3.org/2000/svg">
<g clip-path="url(#clip0_943_868)">
<path d="M9.9999 0.900024C15.302 0.900024 19.5999 5.19794 19.5999 10.5C19.5999 15.8021 15.302 20.1 9.9999 20.1C4.69782 20.1 0.399902 15.8021 0.399902 10.5C0.399902 5.19794 4.69782 0.900024 9.9999 0.900024ZM12.5103 6.39602C11.2335 6.39602 10.1967 7.43283 10.1967 8.70962C10.1967 8.89202 10.2159 9.06962 10.2591 9.23763C9.33858 9.19181 8.43801 8.95272 7.61598 8.53592C6.79395 8.11911 6.06887 7.53393 5.4879 6.81842C5.2911 7.15922 5.1759 7.55762 5.1759 7.98002C5.17528 8.36119 5.26924 8.73655 5.44935 9.07247C5.62946 9.4084 5.89009 9.69439 6.2079 9.90483C5.8287 9.89522 5.4735 9.78963 5.1615 9.61683V9.64562C5.1615 10.7688 5.9583 11.7 7.0191 11.916C6.67786 12.0088 6.31984 12.022 5.9727 11.9544C6.11958 12.4145 6.40691 12.8171 6.79433 13.1055C7.18175 13.3939 7.64979 13.5537 8.1327 13.5624C7.16196 14.3223 5.92934 14.6658 4.7055 14.5176C5.7183 15.18 6.9375 15.564 8.2431 15.564C12.5007 15.564 14.8287 12.036 14.8287 8.97843C14.8287 8.87762 14.8287 8.77682 14.8239 8.68082C15.2751 8.35442 15.6687 7.94642 15.9807 7.48082C15.5679 7.66322 15.1215 7.78802 14.6511 7.84562C15.1311 7.55762 15.4959 7.10642 15.6687 6.56402C15.2223 6.82802 14.7279 7.02002 14.1999 7.12562C13.9835 6.89441 13.7218 6.71029 13.4311 6.58476C13.1404 6.45922 12.827 6.39498 12.5103 6.39602Z" fill="#184CD1"/>
</g>
<defs>
<clipPath id="clip0_943_868">
<rect width="19.2" height="19.2" fill="white" transform="translate(0.399902 0.900024)"/>
</clipPath>
</defs>
</svg>
